<?xml version="1.0" standalone="no"?>
<!DOCTYPE svg PUBLIC "-//W3C//DTD SVG 20010904//EN"
 "http://www.w3.org/TR/2001/REC-SVG-20010904/DTD/svg10.dtd">
<svg version="1.0" xmlns="http://www.w3.org/2000/svg"
 width="1298.000000pt" height="344.000000pt" viewBox="0 0 1298.000000 344.000000"
 preserveAspectRatio="xMidYMid meet">

<g transform="translate(0.000000,344.000000) scale(0.100000,-0.100000)"
fill="#000000" stroke="none">
<path d="M0 1720 l0 -1720 6490 0 6490 0 0 1720 0 1720 -6490 0 -6490 0 0
-1720z m2011 1452 c48 -40 90 -72 95 -72 5 0 80 23 167 50 87 28 164 50 170
50 7 0 48 -70 92 -155 57 -110 86 -157 100 -160 11 -2 92 -11 179 -19 94 -8
162 -19 166 -26 4 -6 13 -80 20 -163 7 -84 17 -162 21 -174 5 -14 53 -45 141
-91 193 -103 178 -72 124 -249 -25 -83 -46 -163 -46 -178 0 -19 30 -62 106
-155 59 -70 107 -131 107 -135 0 -4 -48 -65 -107 -135 -75 -91 -106 -136 -106
-154 0 -15 21 -94 46 -177 25 -83 42 -155 38 -159 -5 -4 -73 -43 -152 -85 -92
-50 -146 -86 -151 -99 -5 -12 -14 -89 -21 -173 -7 -83 -16 -157 -20 -163 -4
-7 -78 -19 -183 -29 -97 -9 -178 -19 -180 -21 -2 -3 -39 -70 -81 -150 -43 -80
-81 -148 -85 -152 -3 -4 -83 16 -178 44 l-171 51 -138 -115 -138 -115 -136
113 c-74 63 -139 114 -145 114 -5 0 -84 -23 -175 -50 -90 -27 -168 -46 -171
-42 -4 4 -42 72 -85 152 -42 80 -79 147 -81 150 -5 6 -227 29 -290 29 -30 1
-57 7 -65 15 -9 9 -19 62 -27 152 -19 220 0 189 -177 283 -85 46 -156 87 -160
92 -3 5 18 78 45 163 28 85 51 162 51 171 0 9 -49 77 -110 150 -60 74 -110
138 -110 142 0 5 19 28 43 53 23 25 75 85 116 133 l74 88 -51 167 c-29 92 -52
172 -52 177 0 6 70 46 155 90 110 56 157 86 160 100 2 11 11 91 19 179 8 87
17 160 19 163 3 2 84 12 180 21 97 10 178 20 180 22 2 3 39 71 81 152 43 81
82 150 87 154 6 3 86 -18 179 -47 l169 -52 68 56 c37 30 100 82 138 115 l70
60 50 -42 c28 -23 89 -74 136 -114z m4036 -435 c79 -27 160 -81 197 -131 50
-67 74 -127 102 -264 l4 -22 -212 2 -212 3 -7 33 c-20 100 -144 127 -216 48
-43 -47 -56 -101 -51 -221 3 -87 7 -106 30 -146 43 -73 128 -100 199 -64 32
17 69 69 69 98 0 16 17 17 206 17 l207 0 -7 -51 c-27 -204 -156 -336 -375
-385 -111 -25 -320 -15 -419 19 -230 80 -341 251 -342 527 0 183 42 294 154
405 130 129 240 167 461 161 117 -3 152 -7 212 -29z m2976 18 c190 -40 303
-150 352 -340 26 -104 44 -95 -193 -95 l-207 0 -18 50 c-22 61 -51 82 -113 82
-91 0 -143 -71 -151 -205 -8 -115 9 -185 55 -237 32 -35 44 -42 88 -47 74 -8
118 15 146 78 l23 49 197 0 198 0 0 -32 c0 -49 -24 -130 -56 -187 -54 -101
-174 -185 -306 -216 -85 -20 -279 -19 -371 1 -276 61 -421 273 -404 589 13
257 160 440 405 506 84 22 259 25 355 4z m1212 0 c204 -43 362 -185 411 -369
23 -86 27 -212 10 -300 -43 -219 -186 -366 -410 -425 -98 -26 -278 -28 -375
-6 -149 36 -285 136 -345 254 -59 116 -83 300 -55 433 41 197 206 362 414 412
79 19 262 19 350 1z m-5463 -23 c106 -29 183 -68 240 -124 86 -84 138 -231
138 -393 0 -222 -90 -395 -247 -478 -125 -65 -153 -69 -500 -74 l-313 -5 0
552 0 552 303 -5 c263 -4 312 -7 379 -25z m2650 -522 c92 -300 168 -546 168
-548 0 -1 -98 -1 -217 0 l-217 3 -16 65 -16 65 -161 3 -161 2 -17 -70 -17 -70
-190 0 c-176 0 -189 1 -184 18 73 239 327 1061 331 1070 3 10 62 12 267 10
l263 -3 167 -545z m4060 522 c100 -27 169 -63 229 -119 100 -94 143 -213 143
-398 0 -132 -22 -229 -72 -313 -40 -69 -119 -140 -196 -177 -112 -54 -204 -65
-522 -65 l-274 0 0 551 0 551 308 -5 c268 -4 317 -7 384 -25z m1318 -127 l0
-155 -205 0 -205 0 0 -50 0 -50 165 0 165 0 0 -140 0 -140 -165 0 -165 0 0
-55 0 -55 220 0 220 0 0 -150 0 -150 -425 0 -425 0 0 550 0 550 410 0 410 0 0
-155z m-4650 -500 l0 -125 -240 0 -240 0 0 125 0 125 240 0 240 0 0 -125z
m-3741 -811 c61 -18 114 -63 136 -116 l15 -36 -32 -7 c-21 -5 -33 -4 -36 4 -8
23 -55 72 -84 87 -34 17 -111 20 -149 6 -46 -18 -79 -68 -79 -119 0 -61 38
-97 118 -113 199 -39 264 -91 264 -211 0 -73 -37 -130 -109 -165 -138 -68
-308 -8 -354 125 -9 27 -9 35 2 42 30 19 54 9 73 -32 66 -145 316 -123 316 27
0 84 -34 112 -181 144 -104 22 -148 48 -178 101 -59 105 2 231 127 265 63 17
89 17 151 -2z m1426 5 c116 -21 203 -88 251 -192 26 -55 29 -73 29 -157 0 -83
-3 -102 -28 -155 -84 -179 -302 -253 -480 -163 -61 30 -124 95 -154 157 -25
50 -28 67 -28 156 0 87 3 107 26 155 49 104 121 165 229 194 68 18 82 19 155
5z m-1045 -154 l0 -155 205 0 205 0 0 155 0 155 35 0 35 0 -2 -347 -3 -348
-32 -3 -33 -3 0 160 0 161 -205 0 -205 0 0 -160 0 -160 -35 0 -35 0 0 350 0
350 35 0 35 0 0 -155z m1816 140 c148 -44 192 -240 78 -347 -45 -42 -80 -51
-214 -57 l-125 -6 -3 -137 -3 -138 -34 0 -35 0 0 350 0 350 143 0 c97 0 159
-5 193 -15z m536 -302 l3 -318 163 -3 162 -2 0 -30 0 -30 -200 0 -200 0 0 350
0 350 35 0 35 0 2 -317z m528 -33 l0 -350 -35 0 -35 0 0 350 0 350 35 0 35 0
0 -350z m484 58 c110 -158 204 -287 209 -288 4 0 7 131 7 290 l0 290 35 0 35
0 0 -351 0 -350 -42 3 -41 3 -204 290 c-112 160 -208 292 -213 293 -6 2 -10
-106 -10 -292 l0 -296 -30 0 -30 0 0 351 0 350 41 -3 42 -3 201 -287z m926
262 l0 -30 -185 0 -185 0 0 -125 0 -125 165 0 165 0 0 -30 0 -30 -165 0 -165
0 0 -135 0 -135 185 0 185 0 0 -30 0 -30 -220 0 -220 0 0 350 0 350 220 0 220
0 0 -30z"/>
<path d="M897 2653 c-4 -3 -7 -434 -7 -958 0 -726 3 -954 12 -963 14 -14 640
-16 888 -3 472 26 766 208 901 556 50 128 64 219 63 420 0 204 -14 293 -65
427 -116 300 -365 465 -774 513 -97 11 -240 15 -571 15 -242 0 -444 -3 -447
-7z m921 -568 c93 -28 148 -98 172 -222 17 -87 8 -343 -14 -404 -40 -110 -124
-164 -270 -175 l-86 -7 0 412 0 411 73 0 c40 0 96 -7 125 -15z"/>
<path d="M9995 2446 c-39 -17 -80 -65 -96 -113 -17 -48 -17 -206 0 -256 42
-125 178 -165 272 -80 54 49 73 115 67 237 -4 101 -29 161 -80 199 -34 26
-121 33 -163 13z"/>
<path d="M4500 2304 c-1 -82 -1 -192 -2 -244 l-1 -95 54 3 c70 5 114 26 140
68 27 44 40 150 30 235 -16 125 -54 167 -162 176 l-59 6 0 -149z"/>
<path d="M6956 2409 c-17 -47 -83 -329 -78 -334 10 -10 172 -5 172 5 0 15 -81
334 -85 339 -3 2 -7 -2 -9 -10z"/>
<path d="M11200 2210 l0 -242 65 4 c73 4 108 24 140 79 17 29 20 52 20 154 0
100 -3 127 -20 160 -26 50 -70 75 -145 82 l-60 6 0 -243z"/>
<path d="M5698 1236 c-127 -35 -208 -145 -208 -282 0 -79 26 -150 73 -201 57
-62 107 -85 193 -91 61 -4 80 -1 125 20 66 30 109 72 140 135 33 66 34 196 3
264 -57 123 -199 190 -326 155z"/>
<path d="M6340 1084 l0 -146 119 3 c132 4 153 13 199 80 31 45 27 117 -9 155
-43 47 -70 54 -194 54 l-115 0 0 -146z"/>
</g>
</svg>
